<svg width="20" height="21" viewBox="0 0 20 21" fill="none" xmlns="http://www.w3.org/2000/svg">
<path fill-rule="evenodd" clip-rule="evenodd" d="M0 10.3135C0 4.73064 4.579 0.0149536 10 0.0149536C15.421 0.0149536 20 4.73064 20 10.3135C20 13.5987 18.408 16.5729 16 18.474V18.5523H15.898C14.23 19.8344 12.187 20.612 10 20.612C7.813 20.612 5.77 19.8344 4.102 18.5523H4V18.474C1.592 16.5729 0 13.5977 0 10.3135ZM7.12347 15.7058C6.59154 16.1464 6.22136 16.7607 6.074 17.4472C7.242 18.1444 8.584 18.5523 10 18.5523C11.416 18.5523 12.758 18.1444 13.926 17.4472C13.7785 16.7608 13.4082 16.1466 12.8764 15.706C12.3445 15.2653 11.6827 15.0244 11 15.023H9C8.3173 15.0242 7.6554 15.265 7.12347 15.7058ZM13.7677 13.827C14.5877 14.389 15.2286 15.1876 15.61 16.1228C17.077 14.6203 18 12.5544 18 10.3135C18 5.847 14.337 2.07466 10 2.07466C5.663 2.07466 2 5.847 2 10.3135C2 12.5544 2.923 14.6203 4.39 16.1228C4.77144 15.1876 5.41227 14.389 6.23227 13.827C7.05227 13.265 8.01501 12.9645 9 12.9633H11C11.985 12.9645 12.9477 13.265 13.7677 13.827ZM6 8.25376C6 5.9057 7.72 4.13436 10 4.13436C12.28 4.13436 14 5.9057 14 8.25376C14 10.6018 12.28 12.3732 10 12.3732C7.72 12.3732 6 10.6018 6 8.25376ZM8 8.25376C8 9.46692 8.822 10.3135 10 10.3135C11.178 10.3135 12 9.46692 12 8.25376C12 7.0406 11.178 6.19406 10 6.19406C8.822 6.19406 8 7.0406 8 8.25376Z" fill="white"/>
</svg>
