<svg width="20" height="20" viewBox="0 0 20 20" fill="none" xmlns="http://www.w3.org/2000/svg">
<path d="M7.54548 18.7096C7.99735 18.7096 8.36366 18.3324 8.36366 17.867C8.36366 17.4017 7.99735 17.0245 7.54548 17.0245C7.09361 17.0245 6.72729 17.4017 6.72729 17.867C6.72729 18.3324 7.09361 18.7096 7.54548 18.7096Z" stroke="white" stroke-width="2" stroke-linecap="round" stroke-linejoin="round"/>
<path d="M16.5455 18.7096C16.9973 18.7096 17.3637 18.3324 17.3637 17.867C17.3637 17.4017 16.9973 17.0245 16.5455 17.0245C16.0936 17.0245 15.7273 17.4017 15.7273 17.867C15.7273 18.3324 16.0936 18.7096 16.5455 18.7096Z" stroke="white" stroke-width="2" stroke-linecap="round" stroke-linejoin="round"/>
<path d="M1 1.01495H4.27273L6.46545 12.2975C6.54027 12.6853 6.7452 13.0338 7.04436 13.2818C7.34351 13.5299 7.71784 13.6616 8.10182 13.654H16.0545C16.4385 13.6616 16.8129 13.5299 17.112 13.2818C17.4112 13.0338 17.6161 12.6853 17.6909 12.2975L19 5.22798H5.09091" stroke="white" stroke-width="2" stroke-linecap="round" stroke-linejoin="round"/>
</svg>
