<svg width="17" height="12" viewBox="0 0 17 12" fill="none" xmlns="http://www.w3.org/2000/svg">
<path fill-rule="evenodd" clip-rule="evenodd" d="M14.8548 0.611115C13.5474 0.261841 8.32815 0.261841 8.32815 0.261841C8.32815 0.261841 3.11914 0.261841 1.81175 0.591146C1.11173 0.780735 0.53532 1.33947 0.33972 2.02799C1.19209e-07 3.29527 0 5.91974 0 5.91974C0 5.91974 1.19209e-07 8.55405 0.33972 9.80136C0.53532 10.49 1.10144 11.0387 1.81175 11.2283C3.12944 11.5676 8.32815 11.5676 8.32815 11.5676C8.32815 11.5676 13.5474 11.5676 14.8548 11.2383C15.5651 11.0487 16.1312 10.5099 16.3165 9.81135C16.6666 8.55405 16.6666 5.92972 16.6666 5.92972C16.6666 5.92972 16.6768 3.29527 16.3165 2.02799C16.1312 1.33947 15.5651 0.790729 14.8548 0.611115ZM6.67073 8.3345V3.49495L11.0047 5.91974L6.67073 8.3345Z" fill="white"/>
</svg>
